<svg id="Calque_1" data-name="Calque 1" xmlns="http://www.w3.org/2000/svg" viewBox="0 0 500 500"><defs><style>.cls-1{fill:#066;}</style></defs><path class="cls-1" d="M395.47,159.16q-2.89-15.78-16.72-20.24-11.26-3.64-31.77.13l-94,17.3h0L137.32,177.64q-24.51,4.52-38.85,19.23Q82.2,213.6,86.54,237.22q2.91,15.78,17.22,22.45,12.88,5.93,30.09,2.76,11.15-2.06,17.68-8.6a19.41,19.41,0,0,0,5.67-18.28A19.74,19.74,0,0,0,147,221.21a24.59,24.59,0,0,0-17.1-2.76,25.43,25.43,0,0,0-14.26,7.61,21.25,21.25,0,0,0-6.3,14.89q-5.36-.12-6.77-7.79-2-11,6.6-20.2a34.84,34.84,0,0,1,19.45-10.49l51-9.38L165,286.92,122.15,288a14.65,14.65,0,0,0-2.26.23q-7,1.27-10.76,9.63-2.17,4.74-4.26,15.44l62.4-11.49q27.47-5.06,31.86-33.23l3.32-21,16.73-3.27q15.73-3.07,14.4-17.39l-28.7,5.28,7-45.06,21.48-4h0l6.77-1.25,3.31-.6h0L337.66,164q20.94-3.86,23.47,9.88,1.78,9.7-5.4,18.69-4.28,5.38-14.26,12.67-7.25,5.21-8.31,9.45a6.65,6.65,0,0,0,.15,1.82q.46,2.49,5,7.32t5.29,8.75q2.26,12.3-12.69,20.67-10.12,5.55-25.73,8.42l-4.54.84,13.15-82.23-32.09,5.9L266.4,283.56,312.75,275q24.42-4.49,41.54-14.65,23.93-14.25,20.26-34.14-1.77-9.63-10.82-20.22,15.4-11.4,22.44-19.8Q397.89,172.26,395.47,159.16Z"/><path class="cls-1" d="M380.9,339.8a159.18,159.18,0,0,1-224.17,39.53l-20.47,3.61A174.65,174.65,0,0,0,401.4,336.18ZM249.5,75.37A174.7,174.7,0,0,0,92.16,325.85l15.9-2.8A159.16,159.16,0,1,1,408.64,250a161.39,161.39,0,0,1-1.27,20.27l15.89-2.8q.86-8.62.86-17.47A174.62,174.62,0,0,0,249.5,75.37Z"/><path class="cls-1" d="M468.15,271.6a6.16,6.16,0,0,1-5,7.13h0L67.24,348.55h-.06A6.16,6.16,0,0,1,65,336.42l.32-.05L460.7,266.66l.31-.06A6.17,6.17,0,0,1,468.15,271.6Z"/><path class="cls-1" d="M467.35,292.12a6.16,6.16,0,0,1-5,7.14h0L66.44,369.07h-.06A6.16,6.16,0,0,1,64.24,357l.32-.05L459.9,287.19l.32-.07A6.16,6.16,0,0,1,467.35,292.12Z"/><path class="cls-1" d="M466.55,312.64a6.15,6.15,0,0,1-5,7.14h0L65.64,389.59h0a6.16,6.16,0,1,1-2.14-12.14l.31,0L459.1,307.7l.32-.06A6.16,6.16,0,0,1,466.55,312.64Z"/><circle class="cls-1" cx="302.44" cy="125.7" r="15.61"/></svg>