<svg id="Calque_1" data-name="Calque 1" xmlns="http://www.w3.org/2000/svg" viewBox="0 0 718.6 612.31"><defs><style>.cls-1{fill:#f7a416;}</style></defs><path class="cls-1" d="M681.12,265.93q-5.08-27.66-29.31-35.48-19.75-6.37-55.7.24L431.39,261h0L228.54,298.34q-43,7.92-68.12,33.71-28.54,29.32-20.91,70.74,5.09,27.66,30.18,39.36,22.6,10.38,52.76,4.83,19.53-3.59,31-15.07,13.4-13.29,9.94-32.05Q260.27,383,245.5,374.72a43,43,0,0,0-30-4.83,44.64,44.64,0,0,0-25,13.33,37.23,37.23,0,0,0-11,26.11q-9.42-.21-11.89-13.65Q164,376.3,179.18,360.26a61.11,61.11,0,0,1,34.1-18.39l89.39-16.45L277.05,489.93l-75.11,1.87a26.16,26.16,0,0,0-4,.4q-12.18,2.25-18.86,16.89-3.81,8.3-7.46,27.06L281,516q48.13-8.86,55.85-58.27L342.72,421,372,415.25q27.61-5.42,25.25-30.5L347,394l12.28-79,37.66-6.93h0l11.87-2.19,5.79-1.06h0l165.19-30.41q36.72-6.75,41.16,17.31,3.14,17-9.48,32.77-7.47,9.45-25,22.21-12.71,9.12-14.56,16.58a11.18,11.18,0,0,0,.26,3.18q.81,4.38,8.83,12.83t9.28,15.34q4,21.57-22.24,36.25-17.76,9.74-45.11,14.77l-8,1.46L538,302.94,481.73,313.3,454.83,484l81.27-15q42.81-7.89,72.82-25.69,41.94-25,35.52-59.85-3.11-16.87-19-35.45,27-20,39.34-34.71Q685.35,288.9,681.12,265.93Z" transform="translate(-90.09 -119.04)"/><path class="cls-1" d="M182.27,562.53l-28.21,5q5.35,10.2,11.45,19.91l29.07-5.13Q188,572.69,182.27,562.53Zm48.61,62.89-32.25,5.69q8.85,9.72,18.5,18.67l34.54-6.09Q240.83,635.08,230.88,625.42ZM425.2,119C256.11,119,119,256.11,119,425.2a305,305,0,0,0,30.31,133l27.89-4.91A277.86,277.86,0,0,1,146.18,425.2c0-1.27,0-2.53,0-3.8h0A278.44,278.44,0,0,1,163,329.46C202.1,222.52,304.73,146.18,425.2,146.18a278.87,278.87,0,0,1,279,279A281.65,281.65,0,0,1,702,460.74l27.86-4.92q1.51-15.1,1.52-30.62C731.35,256.11,594.28,119,425.2,119Zm270.48,374.9,29-5.13q2.37-11.16,3.9-22.61l-28.18,5Q698.52,482.72,695.68,493.94Zm-4.1,14.52q-3.74,12-8.51,23.44l31.15-5.49q4-11.4,7.09-23.19Zm-15.23,38.41A275.74,275.74,0,0,1,663,571.16l34.58-6.1q6-11.65,11-23.88Zm-20.77,35.76a279.07,279.07,0,0,1-393,69.3l-35.9,6.33A304.94,304.94,0,0,0,425.2,731.35c114.13,0,213.68-62.46,266.32-155.06ZM203.42,594.54l-29.75,5.24q6.93,10,14.63,19.36l31.15-5.49Q211,604.47,203.42,594.54Z" transform="translate(-90.09 -119.04)"/><path class="cls-1" d="M799.77,475.57h0l-75.06,13.23-29,5.13-501.1,88.35-29.07,5.13L105.66,598h0l-.1,0a10.8,10.8,0,1,1-3.75-21.27l.56-.09,51.69-9.11,28.21-5,518.17-91.36,28.18-5,66.85-11.79.55-.11a10.8,10.8,0,1,1,3.75,21.27Z" transform="translate(-90.09 -119.04)"/><path class="cls-1" d="M798.38,511.56h0l-84.16,14.84-31.15,5.49L219.45,613.65l-31.15,5.49-84,14.82h-.1a10.8,10.8,0,1,1-3.75-21.27l.55-.09,72.7-12.82,29.75-5.24,488.16-86.08,29.73-5.24,72.77-12.83.55-.11a10.8,10.8,0,0,1,3.75,21.28Z" transform="translate(-90.09 -119.04)"/><path class="cls-1" d="M797,547.53h0l-99.37,17.52L663,571.16,251.67,643.69l-34.54,6.09L102.87,669.93h0l-.1,0A10.8,10.8,0,0,1,99,648.66l.55-.08,99.06-17.47,32.25-5.69,445.47-78.55,32.26-5.69,84.07-14.82.55-.1A10.8,10.8,0,1,1,797,547.53Z" transform="translate(-90.09 -119.04)"/><circle class="cls-1" cx="427.93" cy="88.24" r="27.36"/></svg>